<?xml version="1.0" encoding="utf-8"?>
<!-- Generator: Adobe Illustrator 23.0.2, SVG Export Plug-In . SVG Version: 6.00 Build 0)  -->
<svg version="1.1" id="Capa_1" xmlns="http://www.w3.org/2000/svg" xmlns:xlink="http://www.w3.org/1999/xlink" x="0px" y="0px"
	 viewBox="0 0 512 512" style="enable-background:new 0 0 512 512;" xml:space="preserve">
<style type="text/css">
	.st0{fill:#B1B1B1;}
</style>
<path class="st0" d="M493.3,210.7c25,25,25,65.5,0,90.5c-25,25-65.5,25-90.5,0c-25-25-25-65.5,0-90.5
	C427.7,185.8,468.3,185.8,493.3,210.7"/>
<path class="st0" d="M301.3,210.7c25,25,25,65.5,0,90.5c-25,25-65.5,25-90.5,0c-25-25-25-65.5,0-90.5S276.3,185.8,301.3,210.7"/>
<path class="st0" d="M109.3,210.7c25,25,25,65.5,0,90.5c-25,25-65.5,25-90.5,0c-25-25-25-65.5,0-90.5S84.3,185.8,109.3,210.7"/>
</svg>
