<?xml version="1.0" encoding="utf-8"?>
<!-- Generator: Adobe Illustrator 23.0.2, SVG Export Plug-In . SVG Version: 6.00 Build 0)  -->
<svg version="1.1" id="Layer_1" xmlns="http://www.w3.org/2000/svg" xmlns:xlink="http://www.w3.org/1999/xlink" x="0px" y="0px"
	 viewBox="0 0 100 100" style="enable-background:new 0 0 100 100;" xml:space="preserve">
<style type="text/css">
	.st0{fill:#A5A5A5;}
	.st1{fill-rule:evenodd;clip-rule:evenodd;fill:#FFFFFF;}
</style>
<ellipse transform="matrix(0.7071 -0.7071 0.7071 0.7071 -21.02 50.0775)" class="st0" cx="49.9" cy="50.4" rx="40.1" ry="40.1"/>
<g>
	<path class="st1" d="M49.9,24.8c-14.1,0-25.6,11.5-25.6,25.6c0,5,1.4,9.7,4.1,13.9l-3.9,8.6c-0.4,0.8-0.2,1.7,0.3,2.4
		c0.4,0.5,1.1,0.8,1.7,0.8c0.2,0,0.4,0,0.6-0.1L37.9,73c3.7,2,7.8,3,12.1,3C64,76,75.5,64.5,75.5,50.4C75.5,36.3,64,24.8,49.9,24.8z
		 M49.9,71.5c-3.7,0-7.4-1-10.6-2.9c-0.3-0.2-0.7-0.3-1.1-0.3c-0.2,0-0.4,0-0.6,0.1l-7,1.9L33,65c0.3-0.7,0.2-1.6-0.2-2.2
		c-2.6-3.6-4-7.9-4-12.3c0-11.6,9.5-21.1,21.1-21.1c11.6,0,21.1,9.5,21.1,21.1C71.1,62.1,61.6,71.5,49.9,71.5z"/>
	<path class="st1" d="M59.8,54.2c-1.1-0.6-2.5-1.4-3.7-0.8c-1,0.4-1.6,1.9-2.2,2.7c-0.3,0.4-0.7,0.5-1.2,0.3
		c-3.6-1.4-6.4-3.9-8.4-7.2c-0.3-0.5-0.3-0.9,0.1-1.4c0.6-0.7,1.4-1.5,1.5-2.5c0.2-1-0.3-2.1-0.7-2.9c-0.5-1.1-1.1-2.7-2.2-3.3
		c-1-0.6-2.3-0.3-3.2,0.5c-1.5,1.3-2.3,3.2-2.3,5.2c0,0.6,0.1,1.1,0.2,1.6c0.3,1.3,0.9,2.5,1.6,3.6c0.5,0.9,1.1,1.7,1.7,2.5
		c1.9,2.6,4.4,4.9,7.2,6.7c1.4,0.9,2.9,1.6,4.5,2.1c1.8,0.6,3.3,1.2,5.2,0.8c2-0.4,3.9-1.6,4.7-3.5c0.2-0.6,0.3-1.2,0.2-1.8
		C62.4,55.6,60.8,54.8,59.8,54.2z"/>
</g>
</svg>
