<?xml version="1.0" encoding="utf-8"?>
<!-- Generator: Adobe Illustrator 23.0.2, SVG Export Plug-In . SVG Version: 6.00 Build 0)  -->
<svg version="1.1" id="Capa_1" xmlns="http://www.w3.org/2000/svg" xmlns:xlink="http://www.w3.org/1999/xlink" x="0px" y="0px"
	 viewBox="0 0 512 512" style="enable-background:new 0 0 512 512;" xml:space="preserve">
<style type="text/css">
	.st0{fill:#FFFFFF;}
</style>
<g>
	<g>
		<path class="st0" d="M508.9,248.5l-160-160c-3.1-3-7.6-4-11.6-2.3c-4,1.6-6.6,5.5-6.6,9.9v21.3c0,2.8,1.1,5.5,3.1,7.5l109.8,109.8
			H10.7c-5.9,0-10.7,4.8-10.7,10.7v21.3c0,5.9,4.8,10.7,10.7,10.7h432.9L333.8,387.1c-2,2-3.1,4.7-3.1,7.5V416
			c0,4.3,2.6,8.2,6.6,9.9c1.3,0.6,2.7,0.8,4.1,0.8c2.8,0,5.5-1.1,7.5-3.1l160-160C513,259.4,513,252.6,508.9,248.5z"/>
	</g>
</g>
</svg>
