<?xml version="1.0" encoding="utf-8"?>
<!-- Generator: Adobe Illustrator 23.0.2, SVG Export Plug-In . SVG Version: 6.00 Build 0)  -->
<svg version="1.1" id="Layer_1" xmlns="http://www.w3.org/2000/svg" xmlns:xlink="http://www.w3.org/1999/xlink" x="0px" y="0px"
	 viewBox="0 0 512 512" style="enable-background:new 0 0 512 512;" xml:space="preserve">
<style type="text/css">
	.st0{fill:#9370D8;}
	.st1{fill:#FFFFFF;}
	.st2{fill:#EAEAEA;}
	.st3{fill:#FCFCFC;}
</style>
<g>
	<g>
		<g>
			<path class="st0" d="M226.3,280c-6.4,0-12.5-3.9-15-10.3L148.2,104H24c-8.8,0-16-7.2-16-16s7.2-16,16-16h124.2
				c13.2,0,25.2,8.3,29.9,20.6l63.1,165.7c3.1,8.3-1,17.5-9.3,20.6C230.1,279.7,228.2,280,226.3,280L226.3,280z"/>
		</g>
		<g>
			<path class="st0" d="M392,392H200c-26.5,0-48-21.5-48-48s21.5-48,48-48h64c8.8,0,16,7.2,16,16s-7.2,16-16,16h-64
				c-8.8,0-16,7.2-16,16s7.2,16,16,16h192c8.8,0,16,7.2,16,16S400.8,392,392,392z"/>
		</g>
		<g>
			<path class="st0" d="M408,392H120c-26.5,0-48-21.5-48-48s21.5-48,48-48h64c8.8,0,16,7.2,16,16s-7.2,16-16,16h-64
				c-8.8,0-16,7.2-16,16s7.2,16,16,16h288c8.8,0,16,7.2,16,16S416.8,392,408,392z"/>
		</g>
		<g>
			<path class="st0" d="M146.3,280c-6.4,0-12.5-3.9-15-10.3L68.2,104H24c-8.8,0-16-7.2-16-16s7.2-16,16-16h44.2
				c13.2,0,25.2,8.3,29.9,20.6l63.1,165.7c3.1,8.3-1,17.5-9.3,20.6C150.1,279.7,148.2,280,146.3,280z"/>
		</g>
		<g>
			<path class="st0" d="M88,156.3c0,2.5,0.4,4.9,1.3,7.2l56.8,149.1c3.5,9.3,12.5,15.5,22.4,15.5h238.9c10,0,18.9-6.1,22.4-15.5
				l56.8-149.1c0.9-2.3,1.3-4.8,1.3-7.2c0-11.2-9.1-20.3-20.3-20.3H108.3C97.1,136,88,145.1,88,156.3L88,156.3z"/>
		</g>
		<g>
			<g>
				<path class="st0" d="M387.7,136H108.3c-11.2,0-20.3,9.1-20.3,20.3c0,2.5,0.4,4.9,1.3,7.2l56.8,149.1
					c3.5,9.3,12.5,15.5,22.4,15.5h158.9c10,0,18.9-6.1,22.4-15.5l56.8-149.1c0.9-2.3,1.3-4.8,1.3-7.2C408,145.1,398.9,136,387.7,136
					L387.7,136z M355,186.8l-10.1,26.5h-78.2V176h80.8C353.1,176,357,181.6,355,186.8z M148.5,176h80.8v37.3h-78.2L141,186.8
					C139,181.6,142.9,176,148.5,176z M176.6,280.3l-11.3-29.6h64V288h-41.5C182.9,288,178.4,284.9,176.6,280.3L176.6,280.3z
					 M319.4,280.3c-1.8,4.7-6.2,7.7-11.2,7.7h-41.5v-37.3h64L319.4,280.3z"/>
			</g>
			<g>
				<path class="st1" d="M266.7,213.3h78.2l10.1-26.5c2-5.2-1.9-10.8-7.5-10.8h-80.8L266.7,213.3L266.7,213.3z"/>
			</g>
			<g>
				<path class="st2" d="M266.7,250.7V288h41.5c5,0,9.4-3.1,11.2-7.7l11.3-29.6H266.7z"/>
			</g>
			<g>
				<path class="st3" d="M151.1,213.3h78.2V176h-80.8c-5.6,0-9.5,5.6-7.5,10.8L151.1,213.3z"/>
			</g>
			<g>
				<path class="st1" d="M229.3,250.7h-64l11.3,29.6c1.8,4.7,6.2,7.7,11.2,7.7h41.5L229.3,250.7z"/>
			</g>
		</g>
		<g>
			<path class="st0" d="M144,488h-24c-26.5,0-48-21.5-48-48s21.5-48,48-48h24c26.5,0,48,21.5,48,48S170.5,488,144,488z"/>
		</g>
		<g>
			<circle class="st0" cx="120" cy="440" r="48"/>
		</g>
		<g>
			<circle class="st0" cx="120" cy="440" r="24"/>
		</g>
		<g>
			<path class="st0" d="M376,488h-24c-26.5,0-48-21.5-48-48s21.5-48,48-48h24c26.5,0,48,21.5,48,48S402.5,488,376,488z"/>
		</g>
		<g>
			<circle class="st0" cx="352" cy="440" r="48"/>
		</g>
		<g>
			<circle class="st0" cx="352" cy="440" r="24"/>
		</g>
	</g>
	<g>
		<circle class="st0" cx="392" cy="136" r="112"/>
	</g>
	<g>
		<path class="st1" d="M448,120h-40V80c0-8.8-7.2-16-16-16s-16,7.2-16,16v40h-40c-8.8,0-16,7.2-16,16c0,8.8,7.2,16,16,16h40v40
			c0,8.8,7.2,16,16,16s16-7.2,16-16v-40h40c8.8,0,16-7.2,16-16C464,127.2,456.8,120,448,120z"/>
	</g>
</g>
</svg>
