<?xml version="1.0" encoding="utf-8"?>
<!-- Generator: Adobe Illustrator 23.0.2, SVG Export Plug-In . SVG Version: 6.00 Build 0)  -->
<svg version="1.1" id="Layer_1" xmlns="http://www.w3.org/2000/svg" xmlns:xlink="http://www.w3.org/1999/xlink" x="0px" y="0px"
	 viewBox="0 0 100 100" style="enable-background:new 0 0 100 100;" xml:space="preserve">
<style type="text/css">
	.st0{fill:#A5A5A5;}
	.st1{fill:#A2B1CE;}
	.st2{fill:#E8ECF3;}
	.st3{fill:#A7B5D1;}
	.st4{fill-rule:evenodd;clip-rule:evenodd;fill:#FFFFFF;}
</style>
<ellipse transform="matrix(0.2298 -0.9732 0.9732 0.2298 -9.8934 86.8749)" class="st0" cx="49.9" cy="49.7" rx="40.1" ry="40.1"/>
<path class="st1" d="M49.1,51.7c0-0.2-0.1-0.4-0.1-0.6c0.1-1.2-0.1-2.4,0.5-3.5c0.2,0.2,0.4,0.3,0.6,0.5c1.3,1,0.2,2.4,0.5,3.6
	c-0.2,0-0.3,0-0.5,0C49.8,51.7,49.5,51.7,49.1,51.7z"/>
<path class="st2" d="M50.8,48.8c-0.3,0.7-0.5,1.3-0.8,2c-0.4-0.7-2.3-1.4,0-2.1C50.3,48.7,50.6,48.7,50.8,48.8z"/>
<path class="st3" d="M49.2,47.6c0.3,0,0.7,0,1,0c0.2,0.5,0.3,1,0.5,1.5c-0.5,0.4,0,0.7,0,1c-0.2,0.2-0.4,0.4-0.5,0.5
	c-0.4,0.2-0.5,0.6-0.5,1C48.6,50.5,49.4,49,49.2,47.6z"/>
<path class="st4" d="M43.3,49.9v24.6c0,0.4,0.3,0.6,0.6,0.6h9.1c0.4,0,0.6-0.3,0.6-0.6v-25h6.6c0.3,0,0.6-0.3,0.6-0.6l0.6-7.5
	c0-0.4-0.3-0.7-0.6-0.7h-7.2v-5.3c0-1.3,1-2.3,2.3-2.3h5.1c0.4,0,0.6-0.3,0.6-0.6v-7.5c0-0.4-0.3-0.6-0.6-0.6h-8.6
	c-5.1,0-9.2,4.1-9.2,9.2v7.3h-4.6c-0.4,0-0.6,0.3-0.6,0.6v7.5c0,0.4,0.3,0.6,0.6,0.6h4.6V49.9z"/>
</svg>
