<?xml version="1.0" encoding="utf-8"?>
<!-- Generator: Adobe Illustrator 23.0.2, SVG Export Plug-In . SVG Version: 6.00 Build 0)  -->
<svg version="1.1" id="Layer_1" xmlns="http://www.w3.org/2000/svg" xmlns:xlink="http://www.w3.org/1999/xlink" x="0px" y="0px"
	 viewBox="0 0 100 100" style="enable-background:new 0 0 100 100;" xml:space="preserve">
<style type="text/css">
	.st0{fill:#A5A5A5;}
	.st1{fill:#FFFFFF;}
</style>
<ellipse transform="matrix(0.9239 -0.3827 0.3827 0.9239 -15.2491 23.0216)" class="st0" cx="50.2" cy="49.8" rx="40.1" ry="40.1"/>
<g>
	<circle class="st1" cx="64.4" cy="35.9" r="3.1"/>
	<path class="st1" d="M50.6,36.8c-7.2,0-13.1,5.9-13.1,13.1s5.9,13.1,13.1,13.1s13.1-5.9,13.1-13.1S57.8,36.8,50.6,36.8z M50.6,58.2
		c-4.6,0-8.4-3.8-8.4-8.4c0-4.6,3.8-8.4,8.4-8.4s8.4,3.8,8.4,8.4C59,54.5,55.2,58.2,50.6,58.2z"/>
	<g>
		<path class="st1" d="M61,76.4H39.8c-8.8,0-16-7.2-16-16V39.2c0-8.8,7.2-16,16-16H61c8.8,0,16,7.2,16,16v21.2
			C76.9,69.3,69.8,76.4,61,76.4z M39.8,28.3c-6,0-11,4.9-11,11v21.2c0,6,4.9,11,11,11H61c6,0,11-4.9,11-11V39.2c0-6-4.9-11-11-11
			H39.8z"/>
	</g>
</g>
</svg>
