<?xml version="1.0" encoding="utf-8"?>
<!-- Generator: Adobe Illustrator 23.0.2, SVG Export Plug-In . SVG Version: 6.00 Build 0)  -->
<svg version="1.1" id="Layer_1" xmlns="http://www.w3.org/2000/svg" xmlns:xlink="http://www.w3.org/1999/xlink" x="0px" y="0px"
	 viewBox="0 0 100 100" style="enable-background:new 0 0 100 100;" xml:space="preserve">
<style type="text/css">
	.st0{fill:#A5A5A5;}
	.st1{fill:#FFFFFF;}
	.st2{fill-rule:evenodd;clip-rule:evenodd;fill:#FFFFFF;}
</style>
<ellipse transform="matrix(0.2106 -0.9776 0.9776 0.2106 -9.5325 87.5712)" class="st0" cx="49.5" cy="49.7" rx="40.1" ry="40.1"/>
<g>
	<path class="st1" d="M73.8,34.2c-1.6,0.7-3.3,1.1-5,1.4c0.8-0.1,2-1.6,2.5-2.2c0.7-0.9,1.3-1.9,1.7-3c0-0.1,0.1-0.2,0-0.3
		c-0.1,0-0.2,0-0.3,0c-1.9,1-3.8,1.7-5.9,2.3c-0.2,0-0.3,0-0.4-0.1c-0.2-0.2-0.3-0.4-0.5-0.5c-0.9-0.7-1.8-1.3-2.9-1.8
		c-1.4-0.6-2.9-0.8-4.4-0.7c-1.5,0.1-2.9,0.5-4.2,1.2c-1.3,0.7-2.5,1.6-3.4,2.8c-1,1.2-1.7,2.6-2,4c-0.3,1.4-0.3,2.8-0.1,4.3
		c0,0.2,0,0.3-0.2,0.2c-8.1-1.2-14.9-4.1-20.4-10.4c-0.2-0.3-0.4-0.3-0.6,0c-2.4,3.6-1.2,9.4,1.8,12.2c0.4,0.4,0.8,0.8,1.3,1.1
		c-0.2,0-2.2-0.2-3.9-1.1c-0.2-0.2-0.4-0.1-0.4,0.2c0,0.4,0,0.7,0.1,1.2c0.5,3.6,3,7,6.4,8.3c0.4,0.2,0.9,0.3,1.3,0.4
		c-0.8,0.2-1.6,0.3-3.9,0.1c-0.3-0.1-0.4,0.1-0.3,0.4c1.7,4.6,5.4,6,8.1,6.8c0.4,0.1,0.7,0.1,1.1,0.2c0,0,0,0-0.1,0.1
		c-0.9,1.4-4.1,2.4-5.5,2.9c-2.7,0.9-5.6,1.4-8.4,1.1c-0.5-0.1-0.5-0.1-0.7,0c-0.1,0.1,0,0.2,0.1,0.3c0.6,0.4,1.2,0.7,1.7,1
		c1.8,0.9,3.7,1.7,5.6,2.2c10.1,2.8,21.5,0.7,29-6.8c6-5.9,8-14.1,8-22.2c0-0.3,0.4-0.5,0.6-0.7c1.5-1.2,2.8-2.6,3.9-4.1
		c0.3-0.3,0.2-0.7,0.2-0.8c0,0,0,0,0,0C74,34.1,74,34.1,73.8,34.2z"/>
	<path class="st2" d="M39.3,69.9C43.5,69.9,39.5,69.9,39.3,69.9C39.8,69.9,39.2,69.9,39.3,69.9z"/>
	<path class="st2" d="M39.3,69.9C39.2,69.9,38.5,69.9,39.3,69.9C39.3,69.9,39.1,69.9,39.3,69.9z"/>
	<path class="st2" d="M40.9,69.9C40.9,69.8,41.8,69.9,40.9,69.9C40.9,69.9,41,69.9,40.9,69.9z"/>
	<path class="st2" d="M58.4,29.4c-0.1,0-0.1,0-0.2,0C58.3,29.4,58.4,29.4,58.4,29.4z"/>
</g>
</svg>
